<?xml version="1.0" standalone="no"?>
<!DOCTYPE svg PUBLIC "-//W3C//DTD SVG 20010904//EN"
 "http://www.w3.org/TR/2001/REC-SVG-20010904/DTD/svg10.dtd">
<svg version="1.0" xmlns="http://www.w3.org/2000/svg"
 width="300.000000pt" height="300.000000pt" viewBox="0 0 300.000000 300.000000"
 preserveAspectRatio="xMidYMid meet">
<metadata>
Created by potrace 1.11, written by Peter Selinger 2001-2013
</metadata>
<g transform="translate(0.000000,300.000000) scale(0.100000,-0.100000)"
fill="#000000" stroke="none">
<path d="M293 2329 c-51 -4 -102 -13 -112 -19 -20 -10 -20 -11 -1 -53 12 -26
23 -87 29 -162 10 -113 15 -216 41 -855 18 -425 33 -535 81 -560 10 -6 123
-10 262 -10 237 0 245 1 277 23 29 19 82 118 361 672 181 358 351 701 380 764
l52 114 -26 23 c-41 35 -124 48 -300 46 -174 -1 -192 -6 -182 -52 4 -18 -5
-54 -25 -106 -42 -107 -172 -357 -217 -419 -36 -49 -37 -49 -44 -25 -4 14 -8
88 -9 165 -1 77 -5 193 -9 258 -9 131 -18 150 -80 167 -102 27 -339 42 -478
29z"/>
<path d="M1772 2283 c-72 -4 -87 -21 -53 -57 11 -12 21 -32 21 -43 0 -32 -34
-221 -110 -609 -127 -645 -162 -863 -143 -891 7 -9 97 -14 336 -19 l327 -7 0
27 c0 15 -6 39 -14 54 -23 46 -28 105 -16 213 20 193 87 416 130 439 23 12
171 30 253 30 110 0 135 22 157 139 15 79 12 116 -9 142 -18 23 -21 23 -84 12
-78 -13 -208 -2 -243 22 -16 10 -24 25 -24 43 0 43 46 127 78 142 16 7 92 16
187 20 88 4 168 10 178 15 25 10 51 67 72 153 19 81 24 146 12 159 -17 16
-173 22 -577 20 -228 0 -443 -2 -478 -4z"/>
</g>
</svg>
